<?xml version="1.0" encoding="UTF-8" standalone="no"?>
<!DOCTYPE svg PUBLIC "-//W3C//DTD SVG 1.1//EN"
 "http://www.w3.org/Graphics/SVG/1.1/DTD/svg11.dtd">
<!-- Generated by graphviz version 2.38.0 (20140413.2041)
 -->
<!-- Title: Concept Pages: 1 -->
<svg width="334pt" height="260pt"
 viewBox="0.00 0.00 334.00 260.00" xmlns="http://www.w3.org/2000/svg" xmlns:xlink="http://www.w3.org/1999/xlink">
<g id="graph0" class="graph" transform="scale(1 1) rotate(0) translate(4 256)">
<title>Concept</title>
<polygon fill="white" stroke="none" points="-4,4 -4,-256 330,-256 330,4 -4,4"/>
<!-- Uniformly_Continue -->
<g id="node1" class="node"><title>Uniformly_Continue</title>
<polygon fill="none" stroke="black" points="68,-117 0,-117 0,-81 68,-81 68,-117"/>
<text text-anchor="middle" x="34" y="-95.3" font-family="Times New Roman,serif" font-size="14.00">一致连续</text>
</g>
<!-- Theorem -->
<g id="node2" class="node"><title>Theorem</title>
<polygon fill="none" stroke="black" points="184.5,-198 116.5,-198 116.5,-162 184.5,-162 184.5,-198"/>
<text text-anchor="middle" x="150.5" y="-176.3" font-family="Times New Roman,serif" font-size="14.00">两个定理</text>
</g>
<!-- Uniformly_Continue&#45;&gt;Theorem -->
<g id="edge1" class="edge"><title>Uniformly_Continue&#45;&gt;Theorem</title>
<path fill="none" stroke="black" d="M60.696,-117.178C76.9015,-128.642 98.0123,-143.576 115.585,-156.007"/>
<polygon fill="black" stroke="black" points="113.705,-158.965 123.89,-161.883 117.747,-153.25 113.705,-158.965"/>
</g>
<!-- Sufficient_Condition -->
<g id="node5" class="node"><title>Sufficient_Condition</title>
<polygon fill="none" stroke="black" points="197,-117 104,-117 104,-81 197,-81 197,-117"/>
<text text-anchor="middle" x="150.5" y="-95.3" font-family="Times New Roman,serif" font-size="14.00">三个充分条件</text>
</g>
<!-- Uniformly_Continue&#45;&gt;Sufficient_Condition -->
<g id="edge4" class="edge"><title>Uniformly_Continue&#45;&gt;Sufficient_Condition</title>
<path fill="none" stroke="black" d="M68.1181,-99C76.0934,-99 84.8333,-99 93.5337,-99"/>
<polygon fill="black" stroke="black" points="93.6809,-102.5 103.681,-99 93.6808,-95.5001 93.6809,-102.5"/>
</g>
<!-- Sucffiient_Necessary_Condition -->
<g id="node9" class="node"><title>Sucffiient_Necessary_Condition</title>
<polygon fill="none" stroke="black" points="197,-63 104,-63 104,-27 197,-27 197,-63"/>
<text text-anchor="middle" x="150.5" y="-41.3" font-family="Times New Roman,serif" font-size="14.00">三个充要条件</text>
</g>
<!-- Uniformly_Continue&#45;&gt;Sucffiient_Necessary_Condition -->
<g id="edge8" class="edge"><title>Uniformly_Continue&#45;&gt;Sucffiient_Necessary_Condition</title>
<path fill="none" stroke="black" d="M68.1181,-83.381C78.6444,-78.4166 90.503,-72.8239 101.844,-67.4751"/>
<polygon fill="black" stroke="black" points="103.657,-70.4899 111.209,-63.0586 100.671,-64.1587 103.657,-70.4899"/>
</g>
<!-- Theorem_1 -->
<g id="node3" class="node"><title>Theorem_1</title>
<polygon fill="none" stroke="black" points="306.5,-252 252.5,-252 252.5,-216 306.5,-216 306.5,-252"/>
<text text-anchor="middle" x="279.5" y="-230.3" font-family="Times New Roman,serif" font-size="14.00">定义</text>
</g>
<!-- Theorem&#45;&gt;Theorem_1 -->
<g id="edge2" class="edge"><title>Theorem&#45;&gt;Theorem_1</title>
<path fill="none" stroke="black" d="M184.536,-194.047C202.478,-201.676 224.673,-211.113 242.985,-218.899"/>
<polygon fill="black" stroke="black" points="241.863,-222.225 252.436,-222.917 244.602,-215.784 241.863,-222.225"/>
</g>
<!-- Theorem_2 -->
<g id="node4" class="node"><title>Theorem_2</title>
<polygon fill="none" stroke="black" points="320.5,-198 238.5,-198 238.5,-162 320.5,-162 320.5,-198"/>
<text text-anchor="middle" x="279.5" y="-176.3" font-family="Times New Roman,serif" font-size="14.00">Contor定理</text>
</g>
<!-- Theorem&#45;&gt;Theorem_2 -->
<g id="edge3" class="edge"><title>Theorem&#45;&gt;Theorem_2</title>
<path fill="none" stroke="black" d="M184.536,-180C197.784,-180 213.349,-180 227.959,-180"/>
<polygon fill="black" stroke="black" points="228.382,-183.5 238.382,-180 228.382,-176.5 228.382,-183.5"/>
</g>
<!-- S_1 -->
<g id="node6" class="node"><title>S_1</title>
<polygon fill="none" stroke="black" points="325.5,-144 233.5,-144 233.5,-108 325.5,-108 325.5,-144"/>
<text text-anchor="middle" x="279.5" y="-122.3" font-family="Times New Roman,serif" font-size="14.00">LipSchiz连续</text>
</g>
<!-- Sufficient_Condition&#45;&gt;S_1 -->
<g id="edge5" class="edge"><title>Sufficient_Condition&#45;&gt;S_1</title>
<path fill="none" stroke="black" d="M197.35,-108.748C205.725,-110.528 214.545,-112.403 223.161,-114.235"/>
<polygon fill="black" stroke="black" points="222.634,-117.701 233.143,-116.357 224.09,-110.854 222.634,-117.701"/>
</g>
<!-- S_2 -->
<g id="node7" class="node"><title>S_2</title>
<polygon fill="none" stroke="black" points="319.5,-90 239.5,-90 239.5,-54 319.5,-54 319.5,-90"/>
<text text-anchor="middle" x="279.5" y="-68.3" font-family="Times New Roman,serif" font-size="14.00">导函数有界</text>
</g>
<!-- Sufficient_Condition&#45;&gt;S_2 -->
<g id="edge6" class="edge"><title>Sufficient_Condition&#45;&gt;S_2</title>
<path fill="none" stroke="black" d="M197.35,-89.2524C207.795,-87.0317 218.933,-84.6639 229.504,-82.4165"/>
<polygon fill="black" stroke="black" points="230.371,-85.8105 239.425,-80.3074 228.915,-78.9635 230.371,-85.8105"/>
</g>
<!-- S_3 -->
<g id="node8" class="node"><title>S_3</title>
<polygon fill="none" stroke="black" points="326,-36 233,-36 233,-0 326,-0 326,-36"/>
<text text-anchor="middle" x="279.5" y="-14.3" font-family="Times New Roman,serif" font-size="14.00">无穷远处收敛</text>
</g>
<!-- Sufficient_Condition&#45;&gt;S_3 -->
<g id="edge7" class="edge"><title>Sufficient_Condition&#45;&gt;S_3</title>
<path fill="none" stroke="black" d="M183.105,-80.8453C187.814,-77.9677 192.572,-74.9619 197,-72 213.624,-60.8806 216.376,-56.1194 233,-45 234.661,-43.8893 236.367,-42.7724 238.101,-41.6584"/>
<polygon fill="black" stroke="black" points="240.275,-44.4265 246.895,-36.1547 236.562,-38.4927 240.275,-44.4265"/>
</g>
</g>
</svg>
